<svg width="510" height="430" viewBox="875 -15 510 430"
  xmlns="http://www.w3.org/2000/svg">

  <!-- 绘制左侧文字 -->
  <g transform="matrix(1,0,-0.4,1,886.4639963378908,340)">
    <path d="M75 821L75 0L566 0C664 1 679 3 720 25C769 51 796 96 797 149L797 277C796 358 776 387 697 422L697 424C760 459 782 494 783 558L783 681C778 778 700 824 545 821ZM254 158L254 346L483 346C582 345 607 331 608 277L608 221C602 165 588 158 489 158ZM254 504L254 664L517 664C580 663 598 651 599 610L599 568C598 518 579 505 513 504Z" fill="#128AFA" transform="translate(0, 0) scale(0.168, -0.168)" />
  </g>

  <!-- 绘制光环 -->

  <!-- 内联光环 -->
  <g transform="translate(875.9399963378908, -12.5) scale(1.05)">
    <path fill="#302c2c" d="M175.342 76.479c-68.301 12.394-42.089 69.828 54.456 119.318C246.405 204.31 251 205.895 251 203.109c0-.525-4.661-3.181-10.358-5.903-27.45-13.112-54.898-31.438-70.673-47.186-59.967-59.862 10.741-90.165 126.863-54.369 100.859 31.092 175.059 94.575 146.216 125.099l-2.126 2.25h17.027l1.718-3.25c2.535-4.795 2.253-15.77-.585-22.73-20.179-49.496-133.135-108.354-231.258-120.502-14.762-1.827-42.512-1.848-52.482-.039" fill-rule="evenodd"/>
  </g>

  <!-- 绘制右侧文字 -->
  <g transform="matrix(1,0,-0.4,1,1030.4399963378908,340)">
    <path d="M25 0L215 0L273 191L568 191L631 0L822 0L550 821L304 821ZM318 349L420 684L529 349Z" fill="#2B2B2B" transform="translate(0, 0) scale(0.168, -0.168)" />
  </g>

  <!-- 绘制空心部分 -->
  <path d="M 1172.4399963378908,136L 1209.4399963378908,153L 1047.4399963378908,410L 1036.4399963378908,403 Z" fill="white" />

  <!-- 绘制十字 -->

  <!-- 内联十字 -->
  <g transform="translate(875.8149963378908, -10.625) scale(0.2625)">
    <path fill="rgb(16,140,252)" d="M 1464.67 127.926 L 1465.41 129.621 C 1454.32 158.516 1439.41 186.577 1425.87 214.399 L 1371.2 327.987 C 1364.92 340.975 1359.75 354.469 1353.43 367.424 C 1341.55 391.771 1328.67 415.669 1317.19 440.206 C 1297.54 482.239 1278.26 524.519 1256.19 565.391 C 1273.89 575.274 1293.08 582.394 1311.41 590.983 L 1442.26 652.039 L 1795.95 819.577 L 1871.01 854.864 C 1883.55 860.787 1913.15 871.516 1922.05 880.905 C 1891.32 871.01 1861.1 857.519 1831.05 845.706 L 1633.88 767.603 L 1371.95 663.772 C 1323.98 644.596 1274.68 628.068 1228.49 604.774 C 1184.43 675.464 1142.43 747.591 1099.5 818.986 L 832.052 1264.06 L 728.24 1436.34 C 711.871 1463.53 696.906 1492.2 678.996 1518.36 L 678.43 1517.83 C 685.253 1501.9 694.807 1486.82 703.074 1471.55 L 746.93 1389.49 C 761.024 1364.76 773.957 1339.17 787.406 1314.07 L 866.496 1166.48 L 1069.58 787.669 L 1179.43 583.123 L 614.977 324.18 L 457.876 251.504 C 439.201 242.982 420.576 234.352 402.001 225.613 C 391.409 220.666 379.943 216.281 370.125 209.922 C 386.807 212.61 404.217 222.117 420.205 227.99 C 493.32 254.846 565.19 285.551 637.577 314.315 L 1045.43 475.528 L 1163.84 523.002 C 1179.31 529.234 1195.13 534.715 1210.39 541.402 C 1216.13 527.362 1226.27 513.432 1234.18 500.436 L 1290.76 408.828 L 1398.61 233.588 C 1413.59 208.849 1429.06 184.652 1444.4 160.166 C 1451.01 149.632 1456.72 137.505 1464.67 127.926 z"/>
  </g>
</svg>